<svg xmlns="http://www.w3.org/2000/svg" xmlns:xlink="http://www.w3.org/1999/xlink" width="2000" zoomAndPan="magnify" viewBox="0 0 1500 1499.999933" height="2000" preserveAspectRatio="xMidYMid meet" version="1.0"><defs><g/><clipPath id="b1d43aba43"><rect x="0" width="582" y="0" height="701"/></clipPath><clipPath id="fa17fb5014"><rect x="0" width="589" y="0" height="701"/></clipPath><clipPath id="b55156610c"><rect x="0" width="471" y="0" height="729"/></clipPath><clipPath id="b4c3ca4815"><path d="M 708 782 L 775 782 L 775 896 L 708 896 Z M 708 782 " clip-rule="nonzero"/></clipPath><clipPath id="ce347f6559"><path d="M 678.28125 829.898438 L 771.144531 782.464844 L 804.414062 847.601562 L 711.546875 895.03125 Z M 678.28125 829.898438 " clip-rule="nonzero"/></clipPath><clipPath id="f3f9fc4263"><path d="M 708.039062 814.699219 L 771.101562 782.488281 L 774.609375 862.824219 L 711.546875 895.03125 Z M 708.039062 814.699219 " clip-rule="nonzero"/></clipPath><clipPath id="0f4dcfed44"><path d="M 0 0.398438 L 66.71875 0.398438 L 66.71875 113.199219 L 0 113.199219 Z M 0 0.398438 " clip-rule="nonzero"/></clipPath><clipPath id="395ebb792e"><path d="M -29.71875 47.898438 L 63.144531 0.464844 L 96.414062 65.601562 L 3.546875 113.03125 Z M -29.71875 47.898438 " clip-rule="nonzero"/></clipPath><clipPath id="3f33a09ea0"><path d="M 0.0390625 32.699219 L 63.101562 0.488281 L 66.609375 80.824219 L 3.546875 113.03125 Z M 0.0390625 32.699219 " clip-rule="nonzero"/></clipPath><clipPath id="a530d0d31d"><rect x="0" width="67" y="0" height="114"/></clipPath><clipPath id="0423b680d3"><path d="M 1168 607 L 1352 607 L 1352 791 L 1168 791 Z M 1168 607 " clip-rule="nonzero"/></clipPath><clipPath id="139bf0b97b"><path d="M 1168.300781 661.074219 L 1297.015625 607.070312 L 1351.5 736.933594 L 1222.789062 790.9375 Z M 1168.300781 661.074219 " clip-rule="nonzero"/></clipPath><clipPath id="841d00e25a"><path d="M 0.078125 0 L 183.679688 0 L 183.679688 184 L 0.078125 184 Z M 0.078125 0 " clip-rule="nonzero"/></clipPath><clipPath id="e79ca0eeb7"><path d="M 0.300781 54.074219 L 129.015625 0.0703125 L 183.5 129.933594 L 54.789062 183.9375 Z M 0.300781 54.074219 " clip-rule="nonzero"/></clipPath><clipPath id="aa0bc7249c"><rect x="0" width="184" y="0" height="184"/></clipPath><clipPath id="7865da44b2"><path d="M 1134 480 L 1410 480 L 1410 844 L 1134 844 Z M 1134 480 " clip-rule="nonzero"/></clipPath><clipPath id="62c4032c0f"><path d="M 1311.910156 464.085938 L 1409.816406 514.449219 L 1231.980469 860.171875 L 1134.074219 809.8125 Z M 1311.910156 464.085938 " clip-rule="nonzero"/></clipPath><clipPath id="abf64a981b"><path d="M 1343.609375 480.394531 L 1409.816406 514.449219 L 1200.457031 843.523438 L 1134.25 809.46875 Z M 1343.609375 480.394531 " clip-rule="nonzero"/></clipPath><clipPath id="644e97f276"><path d="M 0.238281 0.238281 L 276 0.238281 L 276 363.601562 L 0.238281 363.601562 Z M 0.238281 0.238281 " clip-rule="nonzero"/></clipPath><clipPath id="cf5aa27f5a"><path d="M 177.910156 -15.914062 L 275.816406 34.449219 L 97.980469 380.171875 L 0.0742188 329.8125 Z M 177.910156 -15.914062 " clip-rule="nonzero"/></clipPath><clipPath id="15142652da"><path d="M 209.609375 0.394531 L 275.816406 34.449219 L 66.457031 363.523438 L 0.25 329.46875 Z M 209.609375 0.394531 " clip-rule="nonzero"/></clipPath><clipPath id="9acc7d119f"><rect x="0" width="276" y="0" height="364"/></clipPath><clipPath id="14b3b341d8"><path d="M 1233 381 L 1417 381 L 1417 566 L 1233 566 Z M 1233 381 " clip-rule="nonzero"/></clipPath><clipPath id="bfa161be8c"><path d="M 1233.394531 435.3125 L 1362.109375 381.308594 L 1416.59375 511.171875 L 1287.878906 565.175781 Z M 1233.394531 435.3125 " clip-rule="nonzero"/></clipPath><clipPath id="25f42d7f1a"><path d="M 0.359375 0.121094 L 183.71875 0.121094 L 183.71875 184.199219 L 0.359375 184.199219 Z M 0.359375 0.121094 " clip-rule="nonzero"/></clipPath><clipPath id="8c14767dc0"><path d="M 0.394531 54.3125 L 129.109375 0.308594 L 183.59375 130.171875 L 54.878906 184.175781 Z M 0.394531 54.3125 " clip-rule="nonzero"/></clipPath><clipPath id="13ef989f94"><rect x="0" width="184" y="0" height="185"/></clipPath><clipPath id="a730ab381e"><rect x="0" width="1238" y="0" height="145"/></clipPath><clipPath id="e6c14b3904"><path d="M 1074 782 L 1252 782 L 1252 952 L 1074 952 Z M 1074 782 " clip-rule="nonzero"/></clipPath><clipPath id="e22898355f"><path d="M 1074.515625 836.492188 L 1203.230469 782.488281 L 1251.589844 897.757812 L 1122.878906 951.757812 Z M 1074.515625 836.492188 " clip-rule="nonzero"/></clipPath><clipPath id="b4c0c08774"><path d="M 0.480469 0.398438 L 177.601562 0.398438 L 177.601562 169.839844 L 0.480469 169.839844 Z M 0.480469 0.398438 " clip-rule="nonzero"/></clipPath><clipPath id="d9f10719ca"><path d="M 0.515625 54.492188 L 129.230469 0.488281 L 177.589844 115.757812 L 48.878906 169.757812 Z M 0.515625 54.492188 " clip-rule="nonzero"/></clipPath><clipPath id="67c173d08f"><rect x="0" width="178" y="0" height="170"/></clipPath></defs><g transform="matrix(1, 0, 0, 1, 73, 309)"><g clip-path="url(#b1d43aba43)"><g fill="#ffffff" fill-opacity="1"><g transform="translate(0.276133, 516.445389)"><g><path d="M 36.75 0 L 36.75 -357.8125 L 110.25 -357.8125 L 110.25 -162.46875 L 129.109375 -162.46875 C 144.578125 -162.46875 156.257812 -164.960938 164.15625 -169.953125 C 172.050781 -174.953125 178.421875 -184.546875 183.265625 -198.734375 L 201.15625 -253.859375 L 280.453125 -253.859375 L 250.953125 -173.109375 C 242.890625 -150.535156 232.09375 -133.285156 218.5625 -121.359375 L 291.5625 0 L 205.984375 0 L 149.890625 -96.703125 L 110.25 -96.703125 L 110.25 0 Z M 36.75 0 "/></g></g></g><g fill="#ffffff" fill-opacity="1"><g transform="translate(256.507633, 516.445389)"><g><path d="M 121.359375 4.828125 C 91.378906 4.828125 67.6875 -2.179688 50.28125 -16.203125 C 32.875 -30.222656 24.171875 -49.484375 24.171875 -73.984375 C 24.171875 -97.515625 31.988281 -116.289062 47.625 -130.3125 C 63.257812 -144.332031 84.296875 -151.34375 110.734375 -151.34375 L 202.59375 -151.34375 L 202.59375 -162.953125 C 202.59375 -175.523438 198.078125 -185.597656 189.046875 -193.171875 C 180.023438 -200.742188 168.265625 -204.53125 153.765625 -204.53125 C 141.835938 -204.53125 131.679688 -201.789062 123.296875 -196.3125 C 114.921875 -190.832031 109.601562 -183.582031 107.34375 -174.5625 L 36.75 -174.5625 C 41.257812 -202.28125 53.75 -223.550781 74.21875 -238.375 C 94.6875 -253.207031 121.039062 -260.625 153.28125 -260.625 C 191.320312 -260.625 221.054688 -251.03125 242.484375 -231.84375 C 263.921875 -212.664062 274.640625 -186.316406 274.640625 -152.796875 L 274.640625 0 L 220 0 L 211.78125 -29.5 C 189.539062 -6.613281 159.398438 4.828125 121.359375 4.828125 Z M 96.703125 -76.875 C 96.703125 -68.175781 100.488281 -61.164062 108.0625 -55.84375 C 115.644531 -50.53125 125.722656 -47.875 138.296875 -47.875 C 156.660156 -47.875 171.882812 -53.191406 183.96875 -63.828125 C 196.0625 -74.460938 202.429688 -88.320312 203.078125 -105.40625 L 133.453125 -105.40625 C 122.492188 -105.40625 113.628906 -102.828125 106.859375 -97.671875 C 100.085938 -92.515625 96.703125 -85.582031 96.703125 -76.875 Z M 96.703125 -76.875 "/></g></g></g><g fill="#ffffff" fill-opacity="1"><g transform="translate(515.178416, 516.445389)"><g/></g></g></g></g><g transform="matrix(1, 0, 0, 1, 799, 309)"><g clip-path="url(#fa17fb5014)"><g fill="#ffffff" fill-opacity="1"><g transform="translate(1.271998, 516.445389)"><g><path d="M 190.515625 6.765625 C 174.710938 6.765625 160.039062 4.429688 146.5 -0.234375 C 132.96875 -4.910156 120.882812 -11.441406 110.25 -19.828125 L 110.25 96.703125 L 36.75 96.703125 L 36.75 -253.859375 L 91.390625 -253.859375 L 99.609375 -224.84375 C 110.890625 -236.125 124.265625 -244.90625 139.734375 -251.1875 C 155.210938 -257.476562 172.140625 -260.625 190.515625 -260.625 C 215.972656 -260.625 238.375 -254.898438 257.71875 -243.453125 C 277.0625 -232.015625 292.289062 -216.300781 303.40625 -196.3125 C 314.53125 -176.320312 320.09375 -153.273438 320.09375 -127.171875 C 320.09375 -101.054688 314.53125 -77.925781 303.40625 -57.78125 C 292.289062 -37.632812 277.0625 -21.835938 257.71875 -10.390625 C 238.375 1.046875 215.972656 6.765625 190.515625 6.765625 Z M 107.34375 -127.171875 C 107.34375 -106.535156 113.867188 -89.609375 126.921875 -76.390625 C 139.984375 -63.179688 156.828125 -56.578125 177.453125 -56.578125 C 198.410156 -56.578125 215.332031 -63.179688 228.21875 -76.390625 C 241.113281 -89.609375 247.5625 -106.535156 247.5625 -127.171875 C 247.5625 -147.796875 241.113281 -164.71875 228.21875 -177.9375 C 215.332031 -191.15625 198.410156 -197.765625 177.453125 -197.765625 C 156.828125 -197.765625 139.984375 -191.15625 126.921875 -177.9375 C 113.867188 -164.71875 107.34375 -147.796875 107.34375 -127.171875 Z M 107.34375 -127.171875 "/></g></g></g><g fill="#ffffff" fill-opacity="1"><g transform="translate(292.313336, 516.445389)"><g><path d="M 11.609375 0 L 102.03125 -129.109375 L 15.46875 -253.859375 L 98.640625 -253.859375 L 147.953125 -178.90625 L 171.65625 -215.171875 L 197.765625 -253.859375 L 280.9375 -253.859375 L 194.859375 -129.109375 L 284.796875 0 L 200.1875 0 L 172.625 -40.609375 L 148.4375 -76.875 L 123.78125 -40.609375 L 96.21875 0 Z M 11.609375 0 "/></g></g></g></g></g><g transform="matrix(1, 0, 0, 1, 465, 298)"><g clip-path="url(#b55156610c)"><g fill="#ffffff" fill-opacity="1"><g transform="translate(205.005468, 557.514511)"><g><path d="M 33.859375 -14.296875 L -64.921875 -248.140625 L -14.59375 -269.40625 L 7.484375 -241.984375 C 10.566406 -256.234375 16.710938 -268.191406 25.921875 -277.859375 C 35.128906 -287.523438 48.347656 -295.992188 65.578125 -303.265625 L 90.96875 -314 L 116.9375 -252.53125 L 91.09375 -241.609375 C 71.800781 -233.460938 58.78125 -221.84375 52.03125 -206.75 C 45.289062 -191.65625 47.25 -171.484375 57.90625 -146.234375 L 101.5625 -42.90625 Z M 33.859375 -14.296875 "/></g></g></g></g></g><g clip-path="url(#b4c3ca4815)"><g clip-path="url(#ce347f6559)"><g clip-path="url(#f3f9fc4263)"><g transform="matrix(1, 0, 0, 1, 708, 782)"><g clip-path="url(#a530d0d31d)"><g clip-path="url(#0f4dcfed44)"><g clip-path="url(#395ebb792e)"><g clip-path="url(#3f33a09ea0)"><path fill="#8c52ff" d="M -29.71875 47.898438 L 63.144531 0.464844 L 96.414062 65.601562 L 3.546875 113.03125 Z M -29.71875 47.898438 " fill-opacity="1" fill-rule="nonzero"/></g></g></g></g></g></g></g></g><g clip-path="url(#0423b680d3)"><g clip-path="url(#139bf0b97b)"><g transform="matrix(1, 0, 0, 1, 1168, 607)"><g clip-path="url(#aa0bc7249c)"><g clip-path="url(#841d00e25a)"><g clip-path="url(#e79ca0eeb7)"><path fill="transparent" d="M 0.300781 54.074219 L 129.015625 0.0703125 L 183.441406 129.789062 L 54.726562 183.792969 Z M 0.300781 54.074219 " fill-opacity="1" fill-rule="nonzero"/></g></g></g></g></g></g><g clip-path="url(#7865da44b2)"><g clip-path="url(#62c4032c0f)"><g clip-path="url(#abf64a981b)"><g transform="matrix(1, 0, 0, 1, 1134, 480)"><g clip-path="url(#9acc7d119f)"><g clip-path="url(#644e97f276)"><g clip-path="url(#cf5aa27f5a)"><g clip-path="url(#15142652da)"><path fill="#8c52ff" d="M 177.910156 -15.914062 L 275.816406 34.449219 L 98.175781 379.789062 L 0.269531 329.429688 Z M 177.910156 -15.914062 " fill-opacity="1" fill-rule="nonzero"/></g></g></g></g></g></g></g></g><g clip-path="url(#14b3b341d8)"><g clip-path="url(#bfa161be8c)"><g transform="matrix(1, 0, 0, 1, 1233, 381)"><g clip-path="url(#13ef989f94)"><g clip-path="url(#25f42d7f1a)"><g clip-path="url(#8c14767dc0)"><path fill="transparent" d="M 0.394531 54.3125 L 129.109375 0.308594 L 183.53125 130.027344 L 54.820312 184.03125 Z M 0.394531 54.3125 " fill-opacity="1" fill-rule="nonzero"/></g></g></g></g></g></g><g transform="matrix(1, 0, 0, 1, 156, 982)"><g clip-path="url(#a730ab381e)"><g fill="#ffffff" fill-opacity="1"><g transform="translate(123.619965, 53.846567)"><g><path d="M 2.671875 -35.953125 L 2.671875 -40.28125 L 32.890625 -40.28125 L 32.890625 -35.953125 L 20.21875 -35.953125 L 20.21875 0 L 15.34375 0 L 15.34375 -35.953125 Z M 2.671875 -35.953125 "/></g></g></g><g fill="#ffffff" fill-opacity="1"><g transform="translate(195.235047, 53.846567)"><g><path d="M 4.875 0 L 4.875 -40.28125 L 9.75 -40.28125 L 9.75 -22.34375 L 31.234375 -22.34375 L 31.234375 -40.28125 L 36.109375 -40.28125 L 36.109375 0 L 31.234375 0 L 31.234375 -18.015625 L 9.75 -18.015625 L 9.75 0 Z M 4.875 0 "/></g></g></g><g fill="#ffffff" fill-opacity="1"><g transform="translate(272.278031, 53.846567)"><g><path d="M 4.875 0 L 4.875 -40.28125 L 29.1875 -40.28125 L 29.1875 -35.953125 L 9.75 -35.953125 L 9.75 -22.34375 L 27.9375 -22.34375 L 27.9375 -18.015625 L 9.75 -18.015625 L 9.75 -4.328125 L 29.5 -4.328125 L 29.5 0 Z M 4.875 0 "/></g></g></g><g fill="#ffffff" fill-opacity="1"><g transform="translate(341.454485, 53.846567)"><g/></g></g><g fill="#ffffff" fill-opacity="1"><g transform="translate(393.088537, 53.846567)"><g><path d="M 4.875 0 L 4.875 -40.28125 L 9.75 -40.28125 L 9.75 -20.296875 L 10.234375 -20.296875 L 28.328125 -40.28125 L 34.703125 -40.28125 L 17.78125 -22.109375 L 34.703125 0 L 28.796875 0 L 14.796875 -18.71875 L 9.75 -13.0625 L 9.75 0 Z M 4.875 0 "/></g></g></g><g fill="#ffffff" fill-opacity="1"><g transform="translate(465.254265, 53.846567)"><g><path d="M 31.3125 -40.28125 L 36.1875 -40.28125 L 36.1875 -13.609375 C 36.1875 -10.597656 35.472656 -8.019531 34.046875 -5.875 C 32.617188 -3.738281 30.71875 -2.109375 28.34375 -0.984375 C 25.96875 0.140625 23.363281 0.703125 20.53125 0.703125 C 17.695312 0.703125 15.09375 0.140625 12.71875 -0.984375 C 10.351562 -2.109375 8.453125 -3.738281 7.015625 -5.875 C 5.585938 -8.019531 4.875 -10.597656 4.875 -13.609375 L 4.875 -40.28125 L 9.75 -40.28125 L 9.75 -13.609375 C 9.75 -11.515625 10.25 -9.742188 11.25 -8.296875 C 12.25 -6.847656 13.566406 -5.742188 15.203125 -4.984375 C 16.835938 -4.234375 18.613281 -3.859375 20.53125 -3.859375 C 22.445312 -3.859375 24.222656 -4.234375 25.859375 -4.984375 C 27.503906 -5.742188 28.820312 -6.847656 29.8125 -8.296875 C 30.8125 -9.742188 31.3125 -11.515625 31.3125 -13.609375 Z M 31.3125 -40.28125 "/></g></g></g><g fill="#ffffff" fill-opacity="1"><g transform="translate(542.375916, 53.846567)"><g><path d="M 4.875 0 L 4.875 -40.28125 L 18.96875 -40.28125 C 21.769531 -40.28125 24.082031 -39.796875 25.90625 -38.828125 C 27.726562 -37.867188 29.082031 -36.578125 29.96875 -34.953125 C 30.863281 -33.335938 31.3125 -31.546875 31.3125 -29.578125 C 31.3125 -27.847656 31.003906 -26.421875 30.390625 -25.296875 C 29.785156 -24.171875 28.988281 -23.28125 28 -22.625 C 27.007812 -21.96875 25.9375 -21.484375 24.78125 -21.171875 L 24.78125 -20.765625 C 26.019531 -20.691406 27.257812 -20.257812 28.5 -19.46875 C 29.75 -18.6875 30.789062 -17.5625 31.625 -16.09375 C 32.46875 -14.625 32.890625 -12.828125 32.890625 -10.703125 C 32.890625 -8.679688 32.429688 -6.863281 31.515625 -5.25 C 30.597656 -3.632812 29.144531 -2.351562 27.15625 -1.40625 C 25.175781 -0.46875 22.601562 0 19.4375 0 Z M 9.75 -4.328125 L 19.4375 -4.328125 C 22.625 -4.328125 24.890625 -4.945312 26.234375 -6.1875 C 27.578125 -7.425781 28.25 -8.929688 28.25 -10.703125 C 28.25 -12.066406 27.898438 -13.328125 27.203125 -14.484375 C 26.503906 -15.648438 25.515625 -16.582031 24.234375 -17.28125 C 22.953125 -17.976562 21.429688 -18.328125 19.671875 -18.328125 L 9.75 -18.328125 Z M 9.75 -22.578125 L 18.796875 -22.578125 C 21.003906 -22.578125 22.867188 -23.210938 24.390625 -24.484375 C 25.910156 -25.753906 26.671875 -27.453125 26.671875 -29.578125 C 26.671875 -31.347656 26.050781 -32.851562 24.8125 -34.09375 C 23.582031 -35.332031 21.632812 -35.953125 18.96875 -35.953125 L 9.75 -35.953125 Z M 9.75 -22.578125 "/></g></g></g><g fill="#ffffff" fill-opacity="1"><g transform="translate(614.462999, 53.846567)"><g><path d="M 4.875 0 L 4.875 -40.28125 L 29.1875 -40.28125 L 29.1875 -35.953125 L 9.75 -35.953125 L 9.75 -22.34375 L 27.9375 -22.34375 L 27.9375 -18.015625 L 9.75 -18.015625 L 9.75 -4.328125 L 29.5 -4.328125 L 29.5 0 Z M 4.875 0 "/></g></g></g><g fill="#ffffff" fill-opacity="1"><g transform="translate(683.63943, 53.846567)"><g><path d="M 4.875 0 L 4.875 -40.28125 L 18.484375 -40.28125 C 21.628906 -40.28125 24.210938 -39.742188 26.234375 -38.671875 C 28.253906 -37.609375 29.75 -36.144531 30.71875 -34.28125 C 31.695312 -32.414062 32.1875 -30.300781 32.1875 -27.9375 C 32.1875 -25.257812 31.570312 -22.925781 30.34375 -20.9375 C 29.113281 -18.945312 27.210938 -17.515625 24.640625 -16.640625 L 33.75 0 L 28.09375 0 L 19.59375 -15.75 C 19.257812 -15.738281 18.914062 -15.734375 18.5625 -15.734375 L 9.75 -15.734375 L 9.75 0 Z M 9.75 -20.140625 L 18.40625 -20.140625 C 21.632812 -20.140625 23.9375 -20.832031 25.3125 -22.21875 C 26.6875 -23.613281 27.375 -25.519531 27.375 -27.9375 C 27.375 -30.363281 26.679688 -32.304688 25.296875 -33.765625 C 23.921875 -35.222656 21.597656 -35.953125 18.328125 -35.953125 L 9.75 -35.953125 Z M 9.75 -20.140625 "/></g></g></g><g fill="#ffffff" fill-opacity="1"><g transform="translate(755.097178, 53.846567)"><g><path d="M 36.828125 -40.28125 L 36.828125 0 L 32.09375 0 L 10.15625 -31.625 L 9.75 -31.625 L 9.75 0 L 4.875 0 L 4.875 -40.28125 L 9.59375 -40.28125 L 31.625 -8.578125 L 32.015625 -8.578125 L 32.015625 -40.28125 Z M 36.828125 -40.28125 "/></g></g></g><g fill="#ffffff" fill-opacity="1"><g transform="translate(832.848188, 53.846567)"><g><path d="M 4.875 0 L 4.875 -40.28125 L 29.1875 -40.28125 L 29.1875 -35.953125 L 9.75 -35.953125 L 9.75 -22.34375 L 27.9375 -22.34375 L 27.9375 -18.015625 L 9.75 -18.015625 L 9.75 -4.328125 L 29.5 -4.328125 L 29.5 0 Z M 4.875 0 "/></g></g></g><g fill="#ffffff" fill-opacity="1"><g transform="translate(902.024618, 53.846567)"><g><path d="M 2.671875 -35.953125 L 2.671875 -40.28125 L 32.890625 -40.28125 L 32.890625 -35.953125 L 20.21875 -35.953125 L 20.21875 0 L 15.34375 0 L 15.34375 -35.953125 Z M 2.671875 -35.953125 "/></g></g></g><g fill="#ffffff" fill-opacity="1"><g transform="translate(973.6397, 53.846567)"><g><path d="M 4.875 0 L 4.875 -40.28125 L 29.1875 -40.28125 L 29.1875 -35.953125 L 9.75 -35.953125 L 9.75 -22.34375 L 27.9375 -22.34375 L 27.9375 -18.015625 L 9.75 -18.015625 L 9.75 -4.328125 L 29.5 -4.328125 L 29.5 0 Z M 4.875 0 "/></g></g></g><g fill="#ffffff" fill-opacity="1"><g transform="translate(1042.81613, 53.846567)"><g><path d="M 26.90625 -30.21875 C 26.664062 -32.207031 25.707031 -33.75 24.03125 -34.84375 C 22.351562 -35.945312 20.296875 -36.5 17.859375 -36.5 C 15.179688 -36.5 13.03125 -35.867188 11.40625 -34.609375 C 9.78125 -33.347656 8.96875 -31.75 8.96875 -29.8125 C 8.96875 -28.375 9.410156 -27.210938 10.296875 -26.328125 C 11.179688 -25.441406 12.226562 -24.753906 13.4375 -24.265625 C 14.65625 -23.773438 15.765625 -23.394531 16.765625 -23.125 L 20.84375 -22.03125 C 21.894531 -21.757812 23.066406 -21.378906 24.359375 -20.890625 C 25.648438 -20.398438 26.890625 -19.738281 28.078125 -18.90625 C 29.265625 -18.070312 30.242188 -17.003906 31.015625 -15.703125 C 31.796875 -14.410156 32.1875 -12.820312 32.1875 -10.9375 C 32.1875 -8.757812 31.617188 -6.789062 30.484375 -5.03125 C 29.347656 -3.28125 27.691406 -1.882812 25.515625 -0.84375 C 23.347656 0.1875 20.71875 0.703125 17.625 0.703125 C 13.300781 0.703125 9.863281 -0.316406 7.3125 -2.359375 C 4.769531 -4.398438 3.378906 -7.078125 3.140625 -10.390625 L 8.1875 -10.390625 C 8.3125 -8.867188 8.820312 -7.613281 9.71875 -6.625 C 10.625 -5.632812 11.765625 -4.898438 13.140625 -4.421875 C 14.523438 -3.941406 16.019531 -3.703125 17.625 -3.703125 C 19.488281 -3.703125 21.160156 -4.003906 22.640625 -4.609375 C 24.117188 -5.222656 25.289062 -6.078125 26.15625 -7.171875 C 27.019531 -8.265625 27.453125 -9.546875 27.453125 -11.015625 C 27.453125 -12.347656 27.078125 -13.4375 26.328125 -14.28125 C 25.585938 -15.125 24.609375 -15.804688 23.390625 -16.328125 C 22.171875 -16.847656 20.851562 -17.304688 19.4375 -17.703125 L 14.484375 -19.125 C 11.328125 -20.019531 8.832031 -21.304688 7 -22.984375 C 5.164062 -24.671875 4.25 -26.867188 4.25 -29.578125 C 4.25 -31.835938 4.859375 -33.804688 6.078125 -35.484375 C 7.304688 -37.171875 8.957031 -38.484375 11.03125 -39.421875 C 13.113281 -40.359375 15.441406 -40.828125 18.015625 -40.828125 C 20.609375 -40.828125 22.914062 -40.363281 24.9375 -39.4375 C 26.957031 -38.519531 28.5625 -37.257812 29.75 -35.65625 C 30.9375 -34.0625 31.5625 -32.25 31.625 -30.21875 Z M 26.90625 -30.21875 "/></g></g></g><g fill="#ffffff" fill-opacity="1"><g transform="translate(1.593778, 130.993822)"><g><path d="M 4.875 0 L 4.875 -40.28125 L 29.1875 -40.28125 L 29.1875 -35.953125 L 9.75 -35.953125 L 9.75 -22.34375 L 27.9375 -22.34375 L 27.9375 -18.015625 L 9.75 -18.015625 L 9.75 -4.328125 L 29.5 -4.328125 L 29.5 0 Z M 4.875 0 "/></g></g></g><g fill="#ffffff" fill-opacity="1"><g transform="translate(70.770232, 130.993822)"><g><path d="M 26.90625 -30.21875 C 26.664062 -32.207031 25.707031 -33.75 24.03125 -34.84375 C 22.351562 -35.945312 20.296875 -36.5 17.859375 -36.5 C 15.179688 -36.5 13.03125 -35.867188 11.40625 -34.609375 C 9.78125 -33.347656 8.96875 -31.75 8.96875 -29.8125 C 8.96875 -28.375 9.410156 -27.210938 10.296875 -26.328125 C 11.179688 -25.441406 12.226562 -24.753906 13.4375 -24.265625 C 14.65625 -23.773438 15.765625 -23.394531 16.765625 -23.125 L 20.84375 -22.03125 C 21.894531 -21.757812 23.066406 -21.378906 24.359375 -20.890625 C 25.648438 -20.398438 26.890625 -19.738281 28.078125 -18.90625 C 29.265625 -18.070312 30.242188 -17.003906 31.015625 -15.703125 C 31.796875 -14.410156 32.1875 -12.820312 32.1875 -10.9375 C 32.1875 -8.757812 31.617188 -6.789062 30.484375 -5.03125 C 29.347656 -3.28125 27.691406 -1.882812 25.515625 -0.84375 C 23.347656 0.1875 20.71875 0.703125 17.625 0.703125 C 13.300781 0.703125 9.863281 -0.316406 7.3125 -2.359375 C 4.769531 -4.398438 3.378906 -7.078125 3.140625 -10.390625 L 8.1875 -10.390625 C 8.3125 -8.867188 8.820312 -7.613281 9.71875 -6.625 C 10.625 -5.632812 11.765625 -4.898438 13.140625 -4.421875 C 14.523438 -3.941406 16.019531 -3.703125 17.625 -3.703125 C 19.488281 -3.703125 21.160156 -4.003906 22.640625 -4.609375 C 24.117188 -5.222656 25.289062 -6.078125 26.15625 -7.171875 C 27.019531 -8.265625 27.453125 -9.546875 27.453125 -11.015625 C 27.453125 -12.347656 27.078125 -13.4375 26.328125 -14.28125 C 25.585938 -15.125 24.609375 -15.804688 23.390625 -16.328125 C 22.171875 -16.847656 20.851562 -17.304688 19.4375 -17.703125 L 14.484375 -19.125 C 11.328125 -20.019531 8.832031 -21.304688 7 -22.984375 C 5.164062 -24.671875 4.25 -26.867188 4.25 -29.578125 C 4.25 -31.835938 4.859375 -33.804688 6.078125 -35.484375 C 7.304688 -37.171875 8.957031 -38.484375 11.03125 -39.421875 C 13.113281 -40.359375 15.441406 -40.828125 18.015625 -40.828125 C 20.609375 -40.828125 22.914062 -40.363281 24.9375 -39.4375 C 26.957031 -38.519531 28.5625 -37.257812 29.75 -35.65625 C 30.9375 -34.0625 31.5625 -32.25 31.625 -30.21875 Z M 26.90625 -30.21875 "/></g></g></g><g fill="#ffffff" fill-opacity="1"><g transform="translate(142.149313, 130.993822)"><g><path d="M 26.90625 -30.21875 C 26.664062 -32.207031 25.707031 -33.75 24.03125 -34.84375 C 22.351562 -35.945312 20.296875 -36.5 17.859375 -36.5 C 15.179688 -36.5 13.03125 -35.867188 11.40625 -34.609375 C 9.78125 -33.347656 8.96875 -31.75 8.96875 -29.8125 C 8.96875 -28.375 9.410156 -27.210938 10.296875 -26.328125 C 11.179688 -25.441406 12.226562 -24.753906 13.4375 -24.265625 C 14.65625 -23.773438 15.765625 -23.394531 16.765625 -23.125 L 20.84375 -22.03125 C 21.894531 -21.757812 23.066406 -21.378906 24.359375 -20.890625 C 25.648438 -20.398438 26.890625 -19.738281 28.078125 -18.90625 C 29.265625 -18.070312 30.242188 -17.003906 31.015625 -15.703125 C 31.796875 -14.410156 32.1875 -12.820312 32.1875 -10.9375 C 32.1875 -8.757812 31.617188 -6.789062 30.484375 -5.03125 C 29.347656 -3.28125 27.691406 -1.882812 25.515625 -0.84375 C 23.347656 0.1875 20.71875 0.703125 17.625 0.703125 C 13.300781 0.703125 9.863281 -0.316406 7.3125 -2.359375 C 4.769531 -4.398438 3.378906 -7.078125 3.140625 -10.390625 L 8.1875 -10.390625 C 8.3125 -8.867188 8.820312 -7.613281 9.71875 -6.625 C 10.625 -5.632812 11.765625 -4.898438 13.140625 -4.421875 C 14.523438 -3.941406 16.019531 -3.703125 17.625 -3.703125 C 19.488281 -3.703125 21.160156 -4.003906 22.640625 -4.609375 C 24.117188 -5.222656 25.289062 -6.078125 26.15625 -7.171875 C 27.019531 -8.265625 27.453125 -9.546875 27.453125 -11.015625 C 27.453125 -12.347656 27.078125 -13.4375 26.328125 -14.28125 C 25.585938 -15.125 24.609375 -15.804688 23.390625 -16.328125 C 22.171875 -16.847656 20.851562 -17.304688 19.4375 -17.703125 L 14.484375 -19.125 C 11.328125 -20.019531 8.832031 -21.304688 7 -22.984375 C 5.164062 -24.671875 4.25 -26.867188 4.25 -29.578125 C 4.25 -31.835938 4.859375 -33.804688 6.078125 -35.484375 C 7.304688 -37.171875 8.957031 -38.484375 11.03125 -39.421875 C 13.113281 -40.359375 15.441406 -40.828125 18.015625 -40.828125 C 20.609375 -40.828125 22.914062 -40.363281 24.9375 -39.4375 C 26.957031 -38.519531 28.5625 -37.257812 29.75 -35.65625 C 30.9375 -34.0625 31.5625 -32.25 31.625 -30.21875 Z M 26.90625 -30.21875 "/></g></g></g><g fill="#ffffff" fill-opacity="1"><g transform="translate(213.528394, 130.993822)"><g><path d="M 4.875 0 L 4.875 -40.28125 L 29.1875 -40.28125 L 29.1875 -35.953125 L 9.75 -35.953125 L 9.75 -22.34375 L 27.9375 -22.34375 L 27.9375 -18.015625 L 9.75 -18.015625 L 9.75 -4.328125 L 29.5 -4.328125 L 29.5 0 Z M 4.875 0 "/></g></g></g><g fill="#ffffff" fill-opacity="1"><g transform="translate(282.704848, 130.993822)"><g><path d="M 36.828125 -40.28125 L 36.828125 0 L 32.09375 0 L 10.15625 -31.625 L 9.75 -31.625 L 9.75 0 L 4.875 0 L 4.875 -40.28125 L 9.59375 -40.28125 L 31.625 -8.578125 L 32.015625 -8.578125 L 32.015625 -40.28125 Z M 36.828125 -40.28125 "/></g></g></g><g fill="#ffffff" fill-opacity="1"><g transform="translate(360.455835, 130.993822)"><g><path d="M 2.671875 -35.953125 L 2.671875 -40.28125 L 32.890625 -40.28125 L 32.890625 -35.953125 L 20.21875 -35.953125 L 20.21875 0 L 15.34375 0 L 15.34375 -35.953125 Z M 2.671875 -35.953125 "/></g></g></g><g fill="#ffffff" fill-opacity="1"><g transform="translate(432.070894, 130.993822)"><g><path d="M 9.75 -40.28125 L 9.75 0 L 4.875 0 L 4.875 -40.28125 Z M 9.75 -40.28125 "/></g></g></g><g fill="#ffffff" fill-opacity="1"><g transform="translate(482.760989, 130.993822)"><g><path d="M 6.53125 0 L 1.421875 0 L 16.203125 -40.28125 L 21.25 -40.28125 L 36.03125 0 L 30.921875 0 L 26.875 -11.40625 L 10.578125 -11.40625 Z M 12.109375 -15.734375 L 25.328125 -15.734375 L 18.890625 -33.90625 L 18.5625 -33.90625 Z M 12.109375 -15.734375 "/></g></g></g><g fill="#ffffff" fill-opacity="1"><g transform="translate(556.263986, 130.993822)"><g><path d="M 4.875 0 L 4.875 -40.28125 L 9.75 -40.28125 L 9.75 -4.328125 L 28.484375 -4.328125 L 28.484375 0 Z M 4.875 0 "/></g></g></g><g fill="#ffffff" fill-opacity="1"><g transform="translate(623.473812, 130.993822)"><g><path d="M 26.90625 -30.21875 C 26.664062 -32.207031 25.707031 -33.75 24.03125 -34.84375 C 22.351562 -35.945312 20.296875 -36.5 17.859375 -36.5 C 15.179688 -36.5 13.03125 -35.867188 11.40625 -34.609375 C 9.78125 -33.347656 8.96875 -31.75 8.96875 -29.8125 C 8.96875 -28.375 9.410156 -27.210938 10.296875 -26.328125 C 11.179688 -25.441406 12.226562 -24.753906 13.4375 -24.265625 C 14.65625 -23.773438 15.765625 -23.394531 16.765625 -23.125 L 20.84375 -22.03125 C 21.894531 -21.757812 23.066406 -21.378906 24.359375 -20.890625 C 25.648438 -20.398438 26.890625 -19.738281 28.078125 -18.90625 C 29.265625 -18.070312 30.242188 -17.003906 31.015625 -15.703125 C 31.796875 -14.410156 32.1875 -12.820312 32.1875 -10.9375 C 32.1875 -8.757812 31.617188 -6.789062 30.484375 -5.03125 C 29.347656 -3.28125 27.691406 -1.882812 25.515625 -0.84375 C 23.347656 0.1875 20.71875 0.703125 17.625 0.703125 C 13.300781 0.703125 9.863281 -0.316406 7.3125 -2.359375 C 4.769531 -4.398438 3.378906 -7.078125 3.140625 -10.390625 L 8.1875 -10.390625 C 8.3125 -8.867188 8.820312 -7.613281 9.71875 -6.625 C 10.625 -5.632812 11.765625 -4.898438 13.140625 -4.421875 C 14.523438 -3.941406 16.019531 -3.703125 17.625 -3.703125 C 19.488281 -3.703125 21.160156 -4.003906 22.640625 -4.609375 C 24.117188 -5.222656 25.289062 -6.078125 26.15625 -7.171875 C 27.019531 -8.265625 27.453125 -9.546875 27.453125 -11.015625 C 27.453125 -12.347656 27.078125 -13.4375 26.328125 -14.28125 C 25.585938 -15.125 24.609375 -15.804688 23.390625 -16.328125 C 22.171875 -16.847656 20.851562 -17.304688 19.4375 -17.703125 L 14.484375 -19.125 C 11.328125 -20.019531 8.832031 -21.304688 7 -22.984375 C 5.164062 -24.671875 4.25 -26.867188 4.25 -29.578125 C 4.25 -31.835938 4.859375 -33.804688 6.078125 -35.484375 C 7.304688 -37.171875 8.957031 -38.484375 11.03125 -39.421875 C 13.113281 -40.359375 15.441406 -40.828125 18.015625 -40.828125 C 20.609375 -40.828125 22.914062 -40.363281 24.9375 -39.4375 C 26.957031 -38.519531 28.5625 -37.257812 29.75 -35.65625 C 30.9375 -34.0625 31.5625 -32.25 31.625 -30.21875 Z M 26.90625 -30.21875 "/></g></g></g><g fill="#ffffff" fill-opacity="1"><g transform="translate(694.852917, 130.993822)"><g/></g></g><g fill="#ffffff" fill-opacity="1"><g transform="translate(746.486925, 130.993822)"><g><path d="M 2.671875 -35.953125 L 2.671875 -40.28125 L 32.890625 -40.28125 L 32.890625 -35.953125 L 20.21875 -35.953125 L 20.21875 0 L 15.34375 0 L 15.34375 -35.953125 Z M 2.671875 -35.953125 "/></g></g></g><g fill="#ffffff" fill-opacity="1"><g transform="translate(818.102006, 130.993822)"><g><path d="M 38.875 -20.140625 C 38.875 -15.890625 38.101562 -12.21875 36.5625 -9.125 C 35.03125 -6.03125 32.925781 -3.644531 30.25 -1.96875 C 27.570312 -0.289062 24.519531 0.546875 21.09375 0.546875 C 17.65625 0.546875 14.597656 -0.289062 11.921875 -1.96875 C 9.242188 -3.644531 7.132812 -6.03125 5.59375 -9.125 C 4.0625 -12.21875 3.296875 -15.890625 3.296875 -20.140625 C 3.296875 -24.390625 4.0625 -28.0625 5.59375 -31.15625 C 7.132812 -34.25 9.242188 -36.632812 11.921875 -38.3125 C 14.597656 -39.988281 17.65625 -40.828125 21.09375 -40.828125 C 24.519531 -40.828125 27.570312 -39.988281 30.25 -38.3125 C 32.925781 -36.632812 35.03125 -34.25 36.5625 -31.15625 C 38.101562 -28.0625 38.875 -24.390625 38.875 -20.140625 Z M 34.140625 -20.140625 C 34.140625 -23.628906 33.5625 -26.570312 32.40625 -28.96875 C 31.25 -31.375 29.679688 -33.191406 27.703125 -34.421875 C 25.734375 -35.648438 23.53125 -36.265625 21.09375 -36.265625 C 18.644531 -36.265625 16.429688 -35.648438 14.453125 -34.421875 C 12.484375 -33.191406 10.921875 -31.375 9.765625 -28.96875 C 8.609375 -26.570312 8.03125 -23.628906 8.03125 -20.140625 C 8.03125 -16.648438 8.609375 -13.703125 9.765625 -11.296875 C 10.921875 -8.898438 12.484375 -7.085938 14.453125 -5.859375 C 16.429688 -4.628906 18.644531 -4.015625 21.09375 -4.015625 C 23.53125 -4.015625 25.734375 -4.628906 27.703125 -5.859375 C 29.679688 -7.085938 31.25 -8.898438 32.40625 -11.296875 C 33.5625 -13.703125 34.140625 -16.648438 34.140625 -20.140625 Z M 34.140625 -20.140625 "/></g></g></g><g fill="#ffffff" fill-opacity="1"><g transform="translate(896.325017, 130.993822)"><g><path d="M 38.875 -20.140625 C 38.875 -15.890625 38.101562 -12.21875 36.5625 -9.125 C 35.03125 -6.03125 32.925781 -3.644531 30.25 -1.96875 C 27.570312 -0.289062 24.519531 0.546875 21.09375 0.546875 C 17.65625 0.546875 14.597656 -0.289062 11.921875 -1.96875 C 9.242188 -3.644531 7.132812 -6.03125 5.59375 -9.125 C 4.0625 -12.21875 3.296875 -15.890625 3.296875 -20.140625 C 3.296875 -24.390625 4.0625 -28.0625 5.59375 -31.15625 C 7.132812 -34.25 9.242188 -36.632812 11.921875 -38.3125 C 14.597656 -39.988281 17.65625 -40.828125 21.09375 -40.828125 C 24.519531 -40.828125 27.570312 -39.988281 30.25 -38.3125 C 32.925781 -36.632812 35.03125 -34.25 36.5625 -31.15625 C 38.101562 -28.0625 38.875 -24.390625 38.875 -20.140625 Z M 34.140625 -20.140625 C 34.140625 -23.628906 33.5625 -26.570312 32.40625 -28.96875 C 31.25 -31.375 29.679688 -33.191406 27.703125 -34.421875 C 25.734375 -35.648438 23.53125 -36.265625 21.09375 -36.265625 C 18.644531 -36.265625 16.429688 -35.648438 14.453125 -34.421875 C 12.484375 -33.191406 10.921875 -31.375 9.765625 -28.96875 C 8.609375 -26.570312 8.03125 -23.628906 8.03125 -20.140625 C 8.03125 -16.648438 8.609375 -13.703125 9.765625 -11.296875 C 10.921875 -8.898438 12.484375 -7.085938 14.453125 -5.859375 C 16.429688 -4.628906 18.644531 -4.015625 21.09375 -4.015625 C 23.53125 -4.015625 25.734375 -4.628906 27.703125 -5.859375 C 29.679688 -7.085938 31.25 -8.898438 32.40625 -11.296875 C 33.5625 -13.703125 34.140625 -16.648438 34.140625 -20.140625 Z M 34.140625 -20.140625 "/></g></g></g><g fill="#ffffff" fill-opacity="1"><g transform="translate(974.548028, 130.993822)"><g><path d="M 4.875 0 L 4.875 -40.28125 L 9.75 -40.28125 L 9.75 -4.328125 L 28.484375 -4.328125 L 28.484375 0 Z M 4.875 0 "/></g></g></g><g fill="#ffffff" fill-opacity="1"><g transform="translate(1041.757855, 130.993822)"><g><path d="M 4.875 0 L 4.875 -40.28125 L 9.75 -40.28125 L 9.75 -20.296875 L 10.234375 -20.296875 L 28.328125 -40.28125 L 34.703125 -40.28125 L 17.78125 -22.109375 L 34.703125 0 L 28.796875 0 L 14.796875 -18.71875 L 9.75 -13.0625 L 9.75 0 Z M 4.875 0 "/></g></g></g><g fill="#ffffff" fill-opacity="1"><g transform="translate(1113.923492, 130.993822)"><g><path d="M 9.75 -40.28125 L 9.75 0 L 4.875 0 L 4.875 -40.28125 Z M 9.75 -40.28125 "/></g></g></g><g fill="#ffffff" fill-opacity="1"><g transform="translate(1164.613587, 130.993822)"><g><path d="M 2.671875 -35.953125 L 2.671875 -40.28125 L 32.890625 -40.28125 L 32.890625 -35.953125 L 20.21875 -35.953125 L 20.21875 0 L 15.34375 0 L 15.34375 -35.953125 Z M 2.671875 -35.953125 "/></g></g></g></g></g><g clip-path="url(#e6c14b3904)"><g clip-path="url(#e22898355f)"><g transform="matrix(1, 0, 0, 1, 1074, 782)"><g clip-path="url(#67c173d08f)"><g clip-path="url(#b4c0c08774)"><g clip-path="url(#d9f10719ca)"><path fill="transparent" d="M 0.515625 54.492188 L 129.292969 0.460938 L 177.652344 115.730469 L 48.878906 169.757812 Z M 0.515625 54.492188 " fill-opacity="1" fill-rule="nonzero"/></g></g></g></g></g></g></svg>